<svg width="13" height="13" viewBox="0 0 13 13" fill="none" xmlns="http://www.w3.org/2000/svg">
<path fill-rule="evenodd" clip-rule="evenodd" d="M10.7208 0.863206C11.1114 0.472681 11.7445 0.472681 12.1351 0.863206C12.5256 1.25373 12.5256 1.8869 12.1351 2.27742L7.91427 6.49821L12.1351 10.719C12.5256 11.1095 12.5256 11.7427 12.1351 12.1332C11.7445 12.5238 11.1114 12.5238 10.7209 12.1332L6.50006 7.91242L2.27925 12.1332C1.88873 12.5238 1.25556 12.5238 0.865037 12.1332C0.474512 11.7427 0.474512 11.1095 0.865037 10.719L5.08584 6.49821L0.865051 2.27742C0.474526 1.8869 0.474526 1.25373 0.865051 0.863206C1.25557 0.472681 1.88874 0.472681 2.27926 0.863206L6.50006 5.084L10.7208 0.863206Z" fill="#01272F"/>
</svg>
