<svg width="42" height="42" viewBox="0 0 42 42" fill="none" xmlns="http://www.w3.org/2000/svg">
<path d="M16.1734 19.8754C16.1734 23.6796 21.0645 26.9403 21.0645 26.9403C21.0645 26.9403 25.9556 23.6796 25.9556 19.8754C25.9556 18.5782 25.4403 17.3342 24.523 16.4169C23.6058 15.4997 22.3617 14.9844 21.0645 14.9844C19.7673 14.9844 18.5233 15.4997 17.606 16.4169C16.6887 17.3342 16.1734 18.5782 16.1734 19.8754Z" stroke="#01272F" stroke-width="1.2219" stroke-linecap="round" stroke-linejoin="round"/>
<path d="M21.065 21.5068C20.1645 21.5068 19.4346 20.7769 19.4346 19.8764C19.4346 18.976 20.1645 18.2461 21.065 18.2461C21.9654 18.2461 22.6953 18.976 22.6953 19.8764C22.6953 20.7769 21.9654 21.5068 21.065 21.5068Z" stroke="#01272F" stroke-width="1.2219" stroke-linecap="round" stroke-linejoin="round"/>
</svg>
