<svg width="18" height="21" viewBox="0 0 18 21" fill="none" xmlns="http://www.w3.org/2000/svg">
<path d="M16.3488 9.317C16.3488 15.0688 8.95372 19.9989 8.95372 19.9989C8.95372 19.9989 1.55859 15.0688 1.55859 9.317C1.55859 7.35569 2.33772 5.47471 3.72458 4.08786C5.11143 2.701 6.99241 1.92187 8.95372 1.92188C10.915 1.92188 12.796 2.701 14.1829 4.08786C15.5697 5.47471 16.3488 7.35569 16.3488 9.317Z" stroke="#01272F" stroke-width="2" stroke-linecap="round" stroke-linejoin="round"/>
<path d="M8.95332 11.7816C10.3147 11.7816 11.4184 10.678 11.4184 9.31661C11.4184 7.9552 10.3147 6.85156 8.95332 6.85156C7.59192 6.85156 6.48828 7.9552 6.48828 9.31661C6.48828 10.678 7.59192 11.7816 8.95332 11.7816Z" stroke="#01272F" stroke-width="2" stroke-linecap="round" stroke-linejoin="round"/>
</svg>
