<svg width="55" height="51" viewBox="0 0 55 51" fill="none" xmlns="http://www.w3.org/2000/svg">
<path d="M17.1949 16.4941V15.4941V16.4941ZM15.5225 15.4941C14.9702 15.4941 14.5225 15.9419 14.5225 16.4941C14.5225 17.0464 14.9702 17.4941 15.5225 17.4941L15.5225 15.4941ZM34.6381 17.4941C35.1904 17.4941 35.6381 17.0464 35.6381 16.4941C35.6381 15.9419 35.1904 15.4941 34.6381 15.4941V17.4941ZM17.1949 17.4941H32.9969V15.4941H17.1949V17.4941ZM31.9969 16.4941V33.1726H33.9969V16.4941H31.9969ZM29.7423 35.4272H20.4495V37.4272H29.7423V35.4272ZM18.1949 33.1726V16.4941H16.1949V33.1726H18.1949ZM17.1949 15.4941H15.5225L15.5225 17.4941H17.1949V15.4941ZM32.9969 17.4941H34.6381V15.4941H32.9969V17.4941ZM20.4495 35.4272C19.2043 35.4272 18.1949 34.4178 18.1949 33.1726H16.1949C16.1949 35.5224 18.0997 37.4272 20.4495 37.4272V35.4272ZM31.9969 33.1726C31.9969 34.4178 30.9875 35.4272 29.7423 35.4272V37.4272C32.0921 37.4272 33.9969 35.5224 33.9969 33.1726H31.9969Z" fill="#01272F"/>
<line x1="21.3721" y1="21.582" x2="21.3721" y2="31.4143" stroke="#01272F" stroke-width="2" stroke-linecap="round"/>
<line x1="25.0693" y1="21.582" x2="25.0693" y2="31.4143" stroke="#01272F" stroke-width="2" stroke-linecap="round"/>
<line x1="28.7671" y1="21.582" x2="28.7671" y2="31.4143" stroke="#01272F" stroke-width="2" stroke-linecap="round"/>
<line x1="22.9424" y1="13.4922" x2="27.2431" y2="13.4922" stroke="#01272F" stroke-width="2" stroke-linecap="round"/>
</svg>
