<svg width="22" height="20" viewBox="0 0 22 20" fill="none" xmlns="http://www.w3.org/2000/svg">
<path d="M19.0718 3.2151C18.5907 2.72461 18.0195 2.33552 17.3909 2.07006C16.7623 1.8046 16.0884 1.66797 15.408 1.66797C14.7275 1.66797 14.0537 1.8046 13.4251 2.07006C12.7964 2.33552 12.2253 2.72461 11.7442 3.2151L10.7458 4.23255L9.74749 3.2151C8.77579 2.22482 7.45789 1.66848 6.08371 1.66848C4.70952 1.66848 3.39162 2.22482 2.41993 3.2151C1.44824 4.20538 0.902344 5.54848 0.902344 6.94895C0.902344 8.34942 1.44824 9.69253 2.41993 10.6828L3.41829 11.7003L9.49681 17.895C10.1828 18.5941 11.3089 18.5941 11.9949 17.895L18.0734 11.7003L19.0718 10.6828C19.553 10.1926 19.9348 9.61046 20.1953 8.9698C20.4558 8.32913 20.5898 7.64244 20.5898 6.94895C20.5898 6.25546 20.4558 5.56877 20.1953 4.9281C19.9348 4.28744 19.553 3.70535 19.0718 3.2151Z" stroke="white" stroke-width="1.7499" stroke-linecap="round" stroke-linejoin="round"/>
</svg>
