<svg width="51" height="51" viewBox="0 0 51 51" fill="none" xmlns="http://www.w3.org/2000/svg">
<path d="M33.4419 17.9689C32.9608 17.4785 32.3897 17.0894 31.7611 16.8239C31.1325 16.5585 30.4587 16.4219 29.7783 16.4219C29.0978 16.4219 28.4241 16.5585 27.7955 16.8239C27.1669 17.0894 26.5957 17.4785 26.1147 17.9689L25.1164 18.9863L24.1181 17.9689C23.1465 16.9787 21.8286 16.4224 20.4545 16.4224C19.0804 16.4224 17.7626 16.9787 16.7909 17.9689C15.8193 18.9591 15.2734 20.3022 15.2734 21.7026C15.2734 23.103 15.8193 24.446 16.7909 25.4362L17.7892 26.4536L23.8674 32.648C24.5533 33.3471 25.6795 33.3471 26.3654 32.648L32.4436 26.4536L33.4419 25.4362C33.9231 24.946 34.3049 24.3639 34.5653 23.7233C34.8258 23.0827 34.9599 22.396 34.9599 21.7026C34.9599 21.0091 34.8258 20.3225 34.5653 19.6818C34.3049 19.0412 33.9231 18.4591 33.4419 17.9689Z" fill="white" stroke="white" stroke-width="1.7499" stroke-linecap="round" stroke-linejoin="round"/>
</svg>
